# xmcd
#
# Track frame offsets: 
#        150
#        19917
#        35870
#        53551
#        70552
#        91783
#        110884
#        132413
#        153308
#        170075
#        189256
#        210555
#        232975
#
# Disc length: 3355 seconds
#
# Revision: 0
# Processed by: cddbd v1.5.2PL0 Copyright (c) Steve Scherf et al.
# Submitted via: ExactAudioCopy v1.3
#
DISCID=ac0d190d
DTITLE=Deb Ryder - Enjoy The Ride
DYEAR=2018
DGENRE=Electric Blues
TTITLE0=A Storm's Coming
TTITLE1=Temporary Insanity
TTITLE2=Bring The Walls Down
TTITLE3=Nothin To Lose
TTITLE4=For The Last Time
TTITLE5=What You Want From Me
TTITLE6=Enjoy The Ride
TTITLE7=Got To Let It Go
TTITLE8=Life Fast Forward
TTITLE9=Sweet Sweet Love
TTITLE10=Goodbye Baby
TTITLE11=Forever Yours
TTITLE12=Red Line
EXTD=
EXTT0=
EXTT1=
EXTT2=
EXTT3=
EXTT4=
EXTT5=
EXTT6=
EXTT7=
EXTT8=
EXTT9=
EXTT10=
EXTT11=
EXTT12=
PLAYORDER=
